<svg width="154" height="84" viewBox="0 0 154 84" fill="none" xmlns="http://www.w3.org/2000/svg">
    <g filter="url(#filter0_d_208_146)">
        <mask id="path-1-outside-1_208_146" maskUnits="userSpaceOnUse" x="4" y="0" width="146"
            height="76" fill="black">
            <rect fill="white" x="4" width="146" height="76" />
            <path
                d="M59.5426 38.4537C59.5426 53.5152 47.3328 65.725 32.2713 65.725C17.2098 65.725 5 53.5152 5 38.4537C5 23.3921 17.2098 11.1824 32.2713 11.1824C47.3328 11.1824 59.5426 23.3921 59.5426 38.4537Z" />
            <path
                d="M20.7929 9.46902V6.48622H32.6442V1H35.9199V6.45959H43.3503V9.46902H35.9199V20.0686C35.9199 21.2404 35.6358 22.1282 35.0677 22.7318C34.4995 23.3355 33.5319 23.6373 32.1648 23.6373H29.5548L29.1287 20.6545H31.4457C32.2447 20.6545 32.6442 20.255 32.6442 19.4561V12.5583C31.206 14.2806 29.5371 15.9495 27.6373 17.5652C25.7553 19.1631 23.9266 20.4859 22.1511 21.5334L19.9939 19.0566C21.8937 17.9558 23.8733 16.5443 25.9329 14.8221C27.9924 13.0821 29.7235 11.2978 31.1261 9.46902H20.7929Z" />
            <path
                d="M27.8504 37.2641L29.6081 34.734C31.4368 35.533 33.1768 36.4651 34.828 37.5304C35.7157 36.0923 36.3549 34.5476 36.7455 32.8964H28.889C27.8237 35.098 26.1104 37.1931 23.749 39.1816L21.219 37.2108C23.1187 35.6484 24.548 34.0416 25.5068 32.3904C26.4833 30.7215 27.4331 28.4932 28.3564 25.7058L31.2859 26.6911C30.9663 27.8097 30.5935 28.8839 30.1674 29.9136H38.2369L40.1012 31.911C39.5685 34.6098 38.663 37.0688 37.3847 39.2881C37.509 39.3769 37.8907 39.661 38.5299 40.1404C39.1868 40.6198 39.5685 40.9127 39.675 41.0192L37.7309 43.5227C37.6066 43.4161 37.2515 43.1409 36.6656 42.6971C36.0797 42.2354 35.7246 41.9602 35.6003 41.8715C33.2745 44.7832 30.3183 47.1269 26.7318 48.9023L24.7877 46.3723C28.1433 44.7211 30.8864 42.626 33.017 40.0871C31.3658 39.0218 29.6436 38.0808 27.8504 37.2641Z" />
            <path
                d="M21.2456 62.2362C23.1631 60.6738 24.5924 59.0847 25.5334 57.469C26.4921 55.8533 27.442 53.5985 28.383 50.7045L31.2859 51.6898C30.9486 52.9149 30.5846 53.9891 30.194 54.9123H38.2103L40.0745 56.9097C39.3466 60.8513 37.8197 64.2336 35.4938 67.0566C33.1679 69.8618 30.2473 72.1433 26.7318 73.9011L24.7877 71.3444C28.019 69.7287 30.6379 67.7668 32.6442 65.4587C34.6682 63.1505 36.0176 60.6294 36.6922 57.8951H28.9423C27.7172 60.2033 25.9861 62.2983 23.749 64.1803L21.2456 62.2362Z" />
            <path
                d="M74.2968 37.0244C74.2968 33.722 75.1224 31.0588 76.7736 29.0348C78.4248 27.0107 80.6175 25.9987 83.3518 25.9987C86.086 25.9987 88.2698 27.0107 89.9033 29.0348C91.5545 31.0411 92.3801 33.7043 92.3801 37.0244C92.3801 40.3446 91.5545 43.0078 89.9033 45.0141C88.2521 47.0203 86.0682 48.0235 83.3518 48.0235C80.6175 48.0235 78.4248 47.0203 76.7736 45.0141C75.1224 43.0078 74.2968 40.3446 74.2968 37.0244ZM77.9188 37.0244C77.9188 39.4923 78.3982 41.4453 79.3569 42.8835C80.3335 44.3039 81.6651 45.0141 83.3518 45.0141C85.0207 45.0141 86.3346 44.3039 87.2933 42.8835C88.2698 41.4631 88.7581 39.5101 88.7581 37.0244C88.7581 34.5743 88.2787 32.6301 87.32 31.192C86.379 29.7361 85.0562 29.0081 83.3518 29.0081C81.6651 29.0081 80.3335 29.7361 79.3569 31.192C78.3982 32.6301 77.9188 34.5743 77.9188 37.0244Z" />
            <path
                d="M93.978 35.0536V32.1774H96.3483V27.6233H99.7039V32.1774H103.219V35.0536H99.7039V42.6172C99.7039 43.3451 99.8459 43.8689 100.13 44.1885C100.432 44.508 100.885 44.6678 101.488 44.6678H103.246V47.5441H101.062C97.9195 47.5441 96.3483 45.9817 96.3483 42.8568V35.0536H93.978Z" />
            <path
                d="M108.386 43.2297C108.386 43.7979 108.608 44.2772 109.052 44.6678C109.513 45.0407 110.117 45.2271 110.863 45.2271C111.928 45.2271 112.834 44.872 113.579 44.1618C114.343 43.4516 114.724 42.5195 114.724 41.3655V39.9539C113.908 40.1492 112.922 40.3357 111.768 40.5132C109.513 40.8683 108.386 41.7738 108.386 43.2297ZM104.977 43.5227C104.977 40.6286 107.125 38.862 111.422 38.2229C112.984 37.992 114.085 37.779 114.724 37.5837V36.7581C114.724 36.0124 114.458 35.4265 113.925 35.0004C113.393 34.5743 112.683 34.3612 111.795 34.3612C110.108 34.3612 108.652 35.0536 107.427 36.4385L105.377 34.6808C106.176 33.7398 107.125 33.0118 108.226 32.4969C109.345 31.9643 110.517 31.698 111.742 31.698C114.032 31.698 115.665 32.2573 116.642 33.3758C117.618 34.4766 118.107 36.0213 118.107 38.0098V47.5441H114.831V45.6266C114.511 46.2835 113.952 46.8517 113.153 47.3311C112.372 47.7927 111.449 48.0235 110.383 48.0235C108.697 48.0235 107.374 47.6062 106.415 46.7718C105.456 45.9373 104.977 44.8543 104.977 43.5227Z" />
            <path
                d="M121.755 47.5441V25.7856H125.111V38.3028L130.571 32.1774H134.805L129.132 38.4359L135.151 47.5441H131.21L126.949 40.8062L125.111 42.8302V47.5441H121.755Z" />
            <path
                d="M136.51 41.978V32.1774H139.892V41.5519C139.892 43.9488 140.735 45.1472 142.422 45.1472C143.434 45.1472 144.224 44.7211 144.792 43.8689C145.36 42.9989 145.644 41.9691 145.644 40.7795V32.1774H149V47.5441H145.751V45.7598H145.724C145.476 46.3102 144.996 46.825 144.286 47.3044C143.594 47.7838 142.724 48.0235 141.676 48.0235C141.055 48.0235 140.46 47.9258 139.892 47.7305C139.341 47.553 138.8 47.26 138.267 46.8517C137.735 46.4256 137.308 45.7953 136.989 44.9608C136.669 44.1263 136.51 43.132 136.51 41.978Z" />
        </mask>
        <path
            d="M59.5426 38.4537C59.5426 53.5152 47.3328 65.725 32.2713 65.725C17.2098 65.725 5 53.5152 5 38.4537C5 23.3921 17.2098 11.1824 32.2713 11.1824C47.3328 11.1824 59.5426 23.3921 59.5426 38.4537Z"
            fill="#F11313" />
        <path
            d="M20.7929 9.46902V6.48622H32.6442V1H35.9199V6.45959H43.3503V9.46902H35.9199V20.0686C35.9199 21.2404 35.6358 22.1282 35.0677 22.7318C34.4995 23.3355 33.5319 23.6373 32.1648 23.6373H29.5548L29.1287 20.6545H31.4457C32.2447 20.6545 32.6442 20.255 32.6442 19.4561V12.5583C31.206 14.2806 29.5371 15.9495 27.6373 17.5652C25.7553 19.1631 23.9266 20.4859 22.1511 21.5334L19.9939 19.0566C21.8937 17.9558 23.8733 16.5443 25.9329 14.8221C27.9924 13.0821 29.7235 11.2978 31.1261 9.46902H20.7929Z"
            fill="white" />
        <path
            d="M27.8504 37.2641L29.6081 34.734C31.4368 35.533 33.1768 36.4651 34.828 37.5304C35.7157 36.0923 36.3549 34.5476 36.7455 32.8964H28.889C27.8237 35.098 26.1104 37.1931 23.749 39.1816L21.219 37.2108C23.1187 35.6484 24.548 34.0416 25.5068 32.3904C26.4833 30.7215 27.4331 28.4932 28.3564 25.7058L31.2859 26.6911C30.9663 27.8097 30.5935 28.8839 30.1674 29.9136H38.2369L40.1012 31.911C39.5685 34.6098 38.663 37.0688 37.3847 39.2881C37.509 39.3769 37.8907 39.661 38.5299 40.1404C39.1868 40.6198 39.5685 40.9127 39.675 41.0192L37.7309 43.5227C37.6066 43.4161 37.2515 43.1409 36.6656 42.6971C36.0797 42.2354 35.7246 41.9602 35.6003 41.8715C33.2745 44.7832 30.3183 47.1269 26.7318 48.9023L24.7877 46.3723C28.1433 44.7211 30.8864 42.626 33.017 40.0871C31.3658 39.0218 29.6436 38.0808 27.8504 37.2641Z"
            fill="white" />
        <path
            d="M21.2456 62.2362C23.1631 60.6738 24.5924 59.0847 25.5334 57.469C26.4921 55.8533 27.442 53.5985 28.383 50.7045L31.2859 51.6898C30.9486 52.9149 30.5846 53.9891 30.194 54.9123H38.2103L40.0745 56.9097C39.3466 60.8513 37.8197 64.2336 35.4938 67.0566C33.1679 69.8618 30.2473 72.1433 26.7318 73.9011L24.7877 71.3444C28.019 69.7287 30.6379 67.7668 32.6442 65.4587C34.6682 63.1505 36.0176 60.6294 36.6922 57.8951H28.9423C27.7172 60.2033 25.9861 62.2983 23.749 64.1803L21.2456 62.2362Z"
            fill="white" />
        <path
            d="M74.2968 37.0244C74.2968 33.722 75.1224 31.0588 76.7736 29.0348C78.4248 27.0107 80.6175 25.9987 83.3518 25.9987C86.086 25.9987 88.2698 27.0107 89.9033 29.0348C91.5545 31.0411 92.3801 33.7043 92.3801 37.0244C92.3801 40.3446 91.5545 43.0078 89.9033 45.0141C88.2521 47.0203 86.0682 48.0235 83.3518 48.0235C80.6175 48.0235 78.4248 47.0203 76.7736 45.0141C75.1224 43.0078 74.2968 40.3446 74.2968 37.0244ZM77.9188 37.0244C77.9188 39.4923 78.3982 41.4453 79.3569 42.8835C80.3335 44.3039 81.6651 45.0141 83.3518 45.0141C85.0207 45.0141 86.3346 44.3039 87.2933 42.8835C88.2698 41.4631 88.7581 39.5101 88.7581 37.0244C88.7581 34.5743 88.2787 32.6301 87.32 31.192C86.379 29.7361 85.0562 29.0081 83.3518 29.0081C81.6651 29.0081 80.3335 29.7361 79.3569 31.192C78.3982 32.6301 77.9188 34.5743 77.9188 37.0244Z"
            fill="white" />
        <path
            d="M93.978 35.0536V32.1774H96.3483V27.6233H99.7039V32.1774H103.219V35.0536H99.7039V42.6172C99.7039 43.3451 99.8459 43.8689 100.13 44.1885C100.432 44.508 100.885 44.6678 101.488 44.6678H103.246V47.5441H101.062C97.9195 47.5441 96.3483 45.9817 96.3483 42.8568V35.0536H93.978Z"
            fill="white" />
        <path
            d="M108.386 43.2297C108.386 43.7979 108.608 44.2772 109.052 44.6678C109.513 45.0407 110.117 45.2271 110.863 45.2271C111.928 45.2271 112.834 44.872 113.579 44.1618C114.343 43.4516 114.724 42.5195 114.724 41.3655V39.9539C113.908 40.1492 112.922 40.3357 111.768 40.5132C109.513 40.8683 108.386 41.7738 108.386 43.2297ZM104.977 43.5227C104.977 40.6286 107.125 38.862 111.422 38.2229C112.984 37.992 114.085 37.779 114.724 37.5837V36.7581C114.724 36.0124 114.458 35.4265 113.925 35.0004C113.393 34.5743 112.683 34.3612 111.795 34.3612C110.108 34.3612 108.652 35.0536 107.427 36.4385L105.377 34.6808C106.176 33.7398 107.125 33.0118 108.226 32.4969C109.345 31.9643 110.517 31.698 111.742 31.698C114.032 31.698 115.665 32.2573 116.642 33.3758C117.618 34.4766 118.107 36.0213 118.107 38.0098V47.5441H114.831V45.6266C114.511 46.2835 113.952 46.8517 113.153 47.3311C112.372 47.7927 111.449 48.0235 110.383 48.0235C108.697 48.0235 107.374 47.6062 106.415 46.7718C105.456 45.9373 104.977 44.8543 104.977 43.5227Z"
            fill="white" />
        <path
            d="M121.755 47.5441V25.7856H125.111V38.3028L130.571 32.1774H134.805L129.132 38.4359L135.151 47.5441H131.21L126.949 40.8062L125.111 42.8302V47.5441H121.755Z"
            fill="white" />
        <path
            d="M136.51 41.978V32.1774H139.892V41.5519C139.892 43.9488 140.735 45.1472 142.422 45.1472C143.434 45.1472 144.224 44.7211 144.792 43.8689C145.36 42.9989 145.644 41.9691 145.644 40.7795V32.1774H149V47.5441H145.751V45.7598H145.724C145.476 46.3102 144.996 46.825 144.286 47.3044C143.594 47.7838 142.724 48.0235 141.676 48.0235C141.055 48.0235 140.46 47.9258 139.892 47.7305C139.341 47.553 138.8 47.26 138.267 46.8517C137.735 46.4256 137.308 45.7953 136.989 44.9608C136.669 44.1263 136.51 43.132 136.51 41.978Z"
            fill="white" />
        <path
            d="M59.5426 38.4537C59.5426 53.5152 47.3328 65.725 32.2713 65.725C17.2098 65.725 5 53.5152 5 38.4537C5 23.3921 17.2098 11.1824 32.2713 11.1824C47.3328 11.1824 59.5426 23.3921 59.5426 38.4537Z"
            stroke="black" stroke-width="2" mask="url(#path-1-outside-1_208_146)" />
        <path
            d="M20.7929 9.46902V6.48622H32.6442V1H35.9199V6.45959H43.3503V9.46902H35.9199V20.0686C35.9199 21.2404 35.6358 22.1282 35.0677 22.7318C34.4995 23.3355 33.5319 23.6373 32.1648 23.6373H29.5548L29.1287 20.6545H31.4457C32.2447 20.6545 32.6442 20.255 32.6442 19.4561V12.5583C31.206 14.2806 29.5371 15.9495 27.6373 17.5652C25.7553 19.1631 23.9266 20.4859 22.1511 21.5334L19.9939 19.0566C21.8937 17.9558 23.8733 16.5443 25.9329 14.8221C27.9924 13.0821 29.7235 11.2978 31.1261 9.46902H20.7929Z"
            stroke="black" stroke-width="2" mask="url(#path-1-outside-1_208_146)" />
        <path
            d="M27.8504 37.2641L29.6081 34.734C31.4368 35.533 33.1768 36.4651 34.828 37.5304C35.7157 36.0923 36.3549 34.5476 36.7455 32.8964H28.889C27.8237 35.098 26.1104 37.1931 23.749 39.1816L21.219 37.2108C23.1187 35.6484 24.548 34.0416 25.5068 32.3904C26.4833 30.7215 27.4331 28.4932 28.3564 25.7058L31.2859 26.6911C30.9663 27.8097 30.5935 28.8839 30.1674 29.9136H38.2369L40.1012 31.911C39.5685 34.6098 38.663 37.0688 37.3847 39.2881C37.509 39.3769 37.8907 39.661 38.5299 40.1404C39.1868 40.6198 39.5685 40.9127 39.675 41.0192L37.7309 43.5227C37.6066 43.4161 37.2515 43.1409 36.6656 42.6971C36.0797 42.2354 35.7246 41.9602 35.6003 41.8715C33.2745 44.7832 30.3183 47.1269 26.7318 48.9023L24.7877 46.3723C28.1433 44.7211 30.8864 42.626 33.017 40.0871C31.3658 39.0218 29.6436 38.0808 27.8504 37.2641Z"
            stroke="black" stroke-width="2" mask="url(#path-1-outside-1_208_146)" />
        <path
            d="M21.2456 62.2362C23.1631 60.6738 24.5924 59.0847 25.5334 57.469C26.4921 55.8533 27.442 53.5985 28.383 50.7045L31.2859 51.6898C30.9486 52.9149 30.5846 53.9891 30.194 54.9123H38.2103L40.0745 56.9097C39.3466 60.8513 37.8197 64.2336 35.4938 67.0566C33.1679 69.8618 30.2473 72.1433 26.7318 73.9011L24.7877 71.3444C28.019 69.7287 30.6379 67.7668 32.6442 65.4587C34.6682 63.1505 36.0176 60.6294 36.6922 57.8951H28.9423C27.7172 60.2033 25.9861 62.2983 23.749 64.1803L21.2456 62.2362Z"
            stroke="black" stroke-width="2" mask="url(#path-1-outside-1_208_146)" />
        <path
            d="M74.2968 37.0244C74.2968 33.722 75.1224 31.0588 76.7736 29.0348C78.4248 27.0107 80.6175 25.9987 83.3518 25.9987C86.086 25.9987 88.2698 27.0107 89.9033 29.0348C91.5545 31.0411 92.3801 33.7043 92.3801 37.0244C92.3801 40.3446 91.5545 43.0078 89.9033 45.0141C88.2521 47.0203 86.0682 48.0235 83.3518 48.0235C80.6175 48.0235 78.4248 47.0203 76.7736 45.0141C75.1224 43.0078 74.2968 40.3446 74.2968 37.0244ZM77.9188 37.0244C77.9188 39.4923 78.3982 41.4453 79.3569 42.8835C80.3335 44.3039 81.6651 45.0141 83.3518 45.0141C85.0207 45.0141 86.3346 44.3039 87.2933 42.8835C88.2698 41.4631 88.7581 39.5101 88.7581 37.0244C88.7581 34.5743 88.2787 32.6301 87.32 31.192C86.379 29.7361 85.0562 29.0081 83.3518 29.0081C81.6651 29.0081 80.3335 29.7361 79.3569 31.192C78.3982 32.6301 77.9188 34.5743 77.9188 37.0244Z"
            stroke="black" stroke-width="2" mask="url(#path-1-outside-1_208_146)" />
        <path
            d="M93.978 35.0536V32.1774H96.3483V27.6233H99.7039V32.1774H103.219V35.0536H99.7039V42.6172C99.7039 43.3451 99.8459 43.8689 100.13 44.1885C100.432 44.508 100.885 44.6678 101.488 44.6678H103.246V47.5441H101.062C97.9195 47.5441 96.3483 45.9817 96.3483 42.8568V35.0536H93.978Z"
            stroke="black" stroke-width="2" mask="url(#path-1-outside-1_208_146)" />
        <path
            d="M108.386 43.2297C108.386 43.7979 108.608 44.2772 109.052 44.6678C109.513 45.0407 110.117 45.2271 110.863 45.2271C111.928 45.2271 112.834 44.872 113.579 44.1618C114.343 43.4516 114.724 42.5195 114.724 41.3655V39.9539C113.908 40.1492 112.922 40.3357 111.768 40.5132C109.513 40.8683 108.386 41.7738 108.386 43.2297ZM104.977 43.5227C104.977 40.6286 107.125 38.862 111.422 38.2229C112.984 37.992 114.085 37.779 114.724 37.5837V36.7581C114.724 36.0124 114.458 35.4265 113.925 35.0004C113.393 34.5743 112.683 34.3612 111.795 34.3612C110.108 34.3612 108.652 35.0536 107.427 36.4385L105.377 34.6808C106.176 33.7398 107.125 33.0118 108.226 32.4969C109.345 31.9643 110.517 31.698 111.742 31.698C114.032 31.698 115.665 32.2573 116.642 33.3758C117.618 34.4766 118.107 36.0213 118.107 38.0098V47.5441H114.831V45.6266C114.511 46.2835 113.952 46.8517 113.153 47.3311C112.372 47.7927 111.449 48.0235 110.383 48.0235C108.697 48.0235 107.374 47.6062 106.415 46.7718C105.456 45.9373 104.977 44.8543 104.977 43.5227Z"
            stroke="black" stroke-width="2" mask="url(#path-1-outside-1_208_146)" />
        <path
            d="M121.755 47.5441V25.7856H125.111V38.3028L130.571 32.1774H134.805L129.132 38.4359L135.151 47.5441H131.21L126.949 40.8062L125.111 42.8302V47.5441H121.755Z"
            stroke="black" stroke-width="2" mask="url(#path-1-outside-1_208_146)" />
        <path
            d="M136.51 41.978V32.1774H139.892V41.5519C139.892 43.9488 140.735 45.1472 142.422 45.1472C143.434 45.1472 144.224 44.7211 144.792 43.8689C145.36 42.9989 145.644 41.9691 145.644 40.7795V32.1774H149V47.5441H145.751V45.7598H145.724C145.476 46.3102 144.996 46.825 144.286 47.3044C143.594 47.7838 142.724 48.0235 141.676 48.0235C141.055 48.0235 140.46 47.9258 139.892 47.7305C139.341 47.553 138.8 47.26 138.267 46.8517C137.735 46.4256 137.308 45.7953 136.989 44.9608C136.669 44.1263 136.51 43.132 136.51 41.978Z"
            stroke="black" stroke-width="2" mask="url(#path-1-outside-1_208_146)" />
    </g>
    <defs>
        <filter id="filter0_d_208_146" x="0" y="0" width="154" height="83.1662"
            filterUnits="userSpaceOnUse" color-interpolation-filters="sRGB">
            <feFlood flood-opacity="0" result="BackgroundImageFix" />
            <feColorMatrix in="SourceAlpha" type="matrix"
                values="0 0 0 0 0 0 0 0 0 0 0 0 0 0 0 0 0 0 127 0" result="hardAlpha" />
            <feOffset dy="4" />
            <feGaussianBlur stdDeviation="2" />
            <feComposite in2="hardAlpha" operator="out" />
            <feColorMatrix type="matrix" values="0 0 0 0 0 0 0 0 0 0 0 0 0 0 0 0 0 0 0.25 0" />
            <feBlend mode="normal" in2="BackgroundImageFix" result="effect1_dropShadow_208_146" />
            <feBlend mode="normal" in="SourceGraphic" in2="effect1_dropShadow_208_146"
                result="shape" />
        </filter>
    </defs>
</svg>